<?xml version="1.0" encoding="UTF-8" standalone="no"?>
<!-- Created with Inkscape (http://www.inkscape.org/) -->

<svg
   xmlns:dc="http://purl.org/dc/elements/1.1/"
   xmlns:cc="http://creativecommons.org/ns#"
   xmlns:rdf="http://www.w3.org/1999/02/22-rdf-syntax-ns#"
   xmlns:svg="http://www.w3.org/2000/svg"
   xmlns="http://www.w3.org/2000/svg"
   version="1.1"
   width="995.80499"
   height="565.43628"
   id="svg2985"
   xml:space="preserve"><metadata
     id="metadata2991"><rdf:RDF><cc:Work
         rdf:about=""><dc:format>image/svg+xml</dc:format><dc:type
           rdf:resource="http://purl.org/dc/dcmitype/StillImage" /><dc:title></dc:title></cc:Work></rdf:RDF></metadata><defs
     id="defs2989"><clipPath
       id="clipPath2999"><path
         d="m 0,452.349 796.644,0 L 796.644,0 0,0 0,452.349 z"
         id="path3001" /></clipPath></defs><g
     transform="matrix(1.25,0,0,-1.25,0,565.43625)"
     id="g2993"><g
       id="g2995"><g
         clip-path="url(#clipPath2999)"
         id="g2997"><g
           transform="translate(129.7358,168.7939)"
           id="g3003"><path
             d="m 0,0 c -6.331,-15.33 -7.833,-35.488 -11.13,-53.856 6.457,-2.809 14.552,-5.74 22.59,-7.988 4.634,-1.299 9.337,-1.119 14.939,-1.736 4.563,-0.51 10.815,-2.332 14.595,-0.699 1.241,0.534 3.838,4.666 5.219,7.295 3.985,7.63 5.768,12.587 9.38,20.503 1.933,4.232 4.128,9.185 4.86,12.506 0.359,1.604 0.097,3.304 0.352,4.168 1.014,3.523 4.254,8.609 3.124,13.207 -6.546,2.217 -13.142,0.61 -19.804,1.044 -4.92,0.32 -9.637,2.271 -14.594,2.78 -3.784,0.387 -7.902,-0.681 -11.812,0 -1.886,0.33 -3.443,1.657 -5.559,2.088 C 8.447,0.062 4.444,-0.043 1.037,1.048 0.538,0.854 0.194,0.51 0,0 m -38.225,14.599 c -3.196,2.941 -6.345,5.932 -11.123,7.296 -7.93,-13.157 -11.119,-32.885 -11.467,-52.469 11.622,-7.955 23.207,-15.947 38.925,-19.807 3.084,8.803 3.149,18.057 5.208,26.755 0.89,3.766 3.336,7.026 4.164,10.771 1.442,6.485 2.848,11.019 4.172,16.679 -9.692,3.866 -20.607,6.492 -29.879,10.775 m -58.028,35.788 c -2.005,-4.003 -2.546,-8.211 -3.476,-12.852 -1.029,-5.14 -3.009,-10.121 -3.823,-14.946 -1.962,-11.613 0.767,-17.57 6.603,-23.974 5.754,-6.327 11.331,-12.596 18.76,-16.334 2.055,-1.758 3.385,-4.254 6.603,-4.856 2.754,5.007 1.029,9.196 2.084,15.287 0.226,1.298 1.402,2.417 1.736,3.816 1.313,5.481 1.241,13.774 3.124,19.807 1.047,3.336 5.273,9.144 4.868,12.161 -0.223,1.655 -4.072,4.577 -5.908,6.254 -2.63,2.405 -5.613,3.936 -6.944,5.559 -5.409,6.589 -10.513,14.75 -15.99,21.195 l -0.693,0 c -2.496,-2.983 -4.896,-7.016 -6.944,-11.117 m 83.046,29.882 c -0.412,-0.167 -0.792,-0.368 -1.047,-0.695 -4.082,-3.762 -5.237,-9.591 -8.336,-14.596 -3.303,-5.332 -10.366,-12.968 -13.902,-18.761 -0.549,-0.906 -0.829,-2.583 -1.388,-3.474 -2.203,-3.51 -7.633,-8.112 -7.3,-10.773 0.19,-1.492 3.831,-3.279 5.908,-4.516 10.563,-6.291 23.91,-10.287 34.749,-13.899 1.804,2.378 3.099,4.551 4.52,8.34 0.95,2.549 1.588,8.778 4.863,7.989 C 6.392,29.518 6.883,26.573 6.941,25.718 7.274,20.542 2.726,16.102 3.82,11.471 13.53,5.689 26.687,6.668 38.563,3.827 c 1.703,-0.408 3.149,-1.746 4.86,-2.084 7.256,-1.449 14.942,-0.562 22.59,-0.351 2.435,4 1.972,8.702 2.776,13.551 1.37,8.216 5.161,16.422 3.131,26.758 -4.551,0.897 -8.336,-0.007 -12.503,0.346 -2.709,0.229 -5.151,1.648 -8,2.084 -1.804,0.278 -3.887,-0.368 -5.903,0 -1.93,0.348 -3.917,1.654 -5.911,2.432 -1.873,0.733 -4.018,1.418 -6.249,2.082 -3.941,1.175 -9.605,4.55 -12.166,3.824 C 17.12,51.317 17.084,45.232 14.584,41.694 11.471,41.238 10.391,37.227 7.292,37.875 6.919,45.453 12.242,50.273 12.5,58.378 2.917,64.659 -4.311,73.299 -13.207,80.269 m 51.773,31.623 c -10.366,1.381 -21.571,5.499 -34.401,4.166 -2.992,-0.308 -6.019,-1.761 -9.032,-2.08 -1.539,-0.165 -3.103,0.222 -4.516,0 -2.009,-0.319 -3.788,-1.779 -5.908,-2.086 -6.083,-0.886 -8.87,-2.355 -13.551,-3.824 -3.332,-1.042 -6.746,-0.986 -9.727,-2.082 -2.013,-0.738 -3.591,-2.283 -5.56,-3.126 -1.453,-0.626 -3.038,-0.626 -4.523,-1.39 -1.786,-0.934 -3.486,-2.841 -5.556,-4.171 -2.023,-1.302 -3.831,-2.719 -5.56,-4.172 -3.895,-3.273 -8.45,-5.679 -11.463,-8.335 -1.833,-1.615 -2.816,-3.957 -4.516,-5.558 -2.816,-2.646 -6.065,-4.303 -7.644,-7.648 7.494,-12.771 15.442,-25.093 28.143,-32.663 3.433,3.282 5.219,8.382 8.339,13.207 1.988,3.065 6.159,6.453 9.035,10.073 2.565,3.23 4.76,6.979 7.645,10.078 3.113,3.348 5.735,6.937 8.342,9.727 1.79,1.921 4.889,3.641 5.212,5.56 0.664,4.042 -6.883,19.195 -2.088,20.154 7.296,1.458 5.528,-13.253 10.424,-14.247 3.838,0.503 7.22,6.053 11.119,3.128 -0.516,-4.925 -6.334,-4.55 -8.336,-7.992 2.135,-3.425 4.649,-7.123 7.647,-9.729 4.032,-3.504 8.699,-7.55 14.943,-8.685 6.715,9.611 12.22,20.437 18.752,30.23 3.49,2.763 6.284,6.228 8.343,10.423 -1.592,1.541 -3.676,0.791 -5.563,1.042 m 41.697,26.058 c 0.854,-5.17 -2.263,-9.571 -4.864,-12.505 -4.404,-4.971 -10.387,-8.917 -13.551,-14.943 4.129,-1.688 7.949,-2.773 11.812,-5.213 2.195,-1.389 4.484,-3.628 6.951,-5.208 6.184,-3.957 12.141,-7.289 15.287,-13.901 3.684,-1.884 6.801,-6.277 9.38,-10.424 5.032,-8.081 7.798,-14.817 9.387,-26.754 0.473,-3.589 1.886,-9.184 0.34,-13.899 -3.353,1.481 -2.769,5.416 -3.475,7.988 -0.574,2.098 -1.743,4.085 -2.428,6.257 -2.73,8.65 -4.398,16.062 -9.732,22.233 -3.343,3.87 -6.592,8.63 -10.419,12.509 -1.618,1.643 -3.957,3.159 -5.908,5.214 -1.812,1.91 -3.906,4.135 -5.563,5.213 -1.683,1.094 -3.917,1.396 -5.556,2.43 -4.706,2.972 -8.731,7.23 -14.244,9.382 -5.968,-2.477 -7.496,-8.937 -11.463,-13.553 -0.954,-1.107 -2.823,-1.636 -3.824,-2.78 -1.23,-1.408 -1.377,-3.467 -2.435,-5.21 -1.467,-2.426 -4.172,-4.469 -5.56,-6.95 -0.566,-1.016 -0.52,-2.292 -1.04,-3.125 -1.539,-2.466 -7.604,-6.756 -6.944,-10.079 0.495,-2.52 9.53,-5.499 11.808,-6.95 3.96,-2.521 6.969,-3.161 12.855,-5.21 6.098,-2.125 13.11,-5.271 20.847,-3.824 1.772,10.372 -1.489,21.325 -1.044,28.497 5.757,1.671 5.943,-5.164 8.343,-7.994 1.861,-7.628 0.097,-20.459 6.596,-22.932 0.463,-3.006 -2.981,-2.11 -3.472,-4.168 C 81.877,28.047 81.092,14.354 77.835,3.135 81.357,-1.176 88.728,7.206 92.426,2.783 89.944,-2.03 82.749,-2.131 76.788,-3.472 70.797,-15.714 67.637,-29.843 62.196,-42.041 59.076,-49.035 51.081,-54.778 51.425,-63.58 c 6.808,-0.381 18.135,-0.126 26.41,-0.352 2.098,-0.057 4.724,0.976 5.907,-1.04 -1.782,-4.451 -10.366,-6.399 -16.686,-6.951 -7.912,-0.696 -18.408,2.618 -24.67,-0.696 -4.107,-2.174 -2.873,-8.658 -9.032,-6.951 -0.244,3.257 2.612,3.414 2.432,6.606 -4.232,1.479 -8.518,-0.753 -13.2,-0.351 -1.771,0.151 -3.471,1.184 -5.215,1.392 -2.087,0.251 -4.225,-0.162 -6.251,0 -3.211,0.254 -5.98,1.61 -9.036,2.084 -2.041,0.318 -4.691,-0.438 -6.951,0 -1.266,0.247 -3.917,2.769 -5.56,2.428 -2.898,-0.592 -2.453,-5.258 -2.428,-8.68 0.018,-2.63 -0.943,-5.445 -1.047,-7.647 -0.596,-13.15 2.295,-27.899 2.084,-40.654 -1.04,-0.459 -2.655,-0.351 -4.172,-0.351 -1.732,9.097 -5.675,19.275 -6.596,30.233 -0.355,4.229 0.34,8.619 0,12.856 -0.19,2.395 -1.263,4.609 -1.388,6.947 -0.223,4.157 2.105,8.286 0.348,12.167 -3.516,1.65 -7.106,1.349 -10.779,2.776 -1.854,0.725 -3.669,2.07 -5.556,2.78 -2.299,0.865 -4.77,0.958 -6.6,1.74 -4.752,2.026 -7.787,7.46 -13.554,7.64 -1.396,-2.417 -0.341,-7.296 -2.777,-8.688 -2.507,-0.064 -3.113,3.329 -3.819,5.216 -1.224,3.278 -3.1,5.875 -3.473,10.423 -8.016,7.51 -18.364,12.675 -26.761,19.802 -0.789,-4.967 2.744,-8.733 4.172,-12.159 1.897,-4.558 2.883,-9.042 4.859,-13.203 3.534,-7.432 9.645,-13.164 14.947,-19.455 3.321,-3.952 8.54,-7.532 8.336,-13.902 -3.928,-0.449 -5.664,3.428 -8.336,5.559 -3.748,2.985 -8.2,5.201 -11.471,8.343 -0.915,0.879 -1.459,2.429 -2.428,3.473 -1.456,1.556 -3.774,2.367 -4.867,3.816 -1.467,1.951 -2.045,5.1 -3.124,7.995 -1.224,3.268 -3.717,6.03 -4.861,8.684 -0.563,1.308 -0.545,2.927 -1.047,4.168 -2.479,6.205 -5.936,11.122 -7.988,17.03 -2.077,5.961 -4.566,12.446 -5.212,19.803 -0.118,1.316 0.316,2.837 0,4.168 -0.39,1.646 -2.227,3.475 -3.472,5.555 -1.241,2.078 -1.908,4.305 -2.78,6.263 -0.882,1.966 -2.658,3.641 -3.475,5.904 -1.891,5.206 -1.79,11.197 -0.7,17.719 6.432,-1.558 5.947,-10.037 10.427,-13.551 2.457,1.401 1.223,4.58 1.392,6.256 0.23,2.217 0.918,5.167 1.733,7.64 2.93,8.9 7.353,18.002 11.811,25.714 1.782,3.075 4.114,5.471 4.172,8.338 0.11,5.579 -6.64,9.033 -3.473,15.636 5.212,1.403 4.774,-6.318 8.681,-6.601 2.769,-0.199 3.68,3.296 5.211,4.862 2.285,2.333 5.521,3.273 6.256,6.255 6.492,4.247 11.391,9.624 17.726,14.245 5.807,4.245 11.406,7.205 19.455,10.425 1.779,0.716 3.425,2.115 5.208,2.779 2.428,0.904 5.786,1.206 8.684,2.087 2.791,0.843 5.312,2.418 7.651,2.778 5.53,0.85 11.435,0.818 16.327,1.39 2.306,0.271 5.004,0.193 7.296,0 11.545,-0.963 24.293,-3.212 32.665,-6.95 3.928,-1.755 9.347,-5.676 11.46,-5.559 2.289,0.125 3.59,3.563 5.56,5.559 1.746,1.765 4.386,3.689 6.603,5.906 4.39,4.389 9.552,8.795 15.294,11.467 0.625,0.31 3.056,1.435 4.516,0.364"
             id="path3005"
             style="fill:#bc1b8b;fill-opacity:1;fill-rule:nonzero;stroke:none" /></g><g
           transform="translate(129.7358,168.7939)"
           id="g3007"><path
             d="m 0,0 c -6.331,-15.33 -7.833,-35.488 -11.13,-53.856 6.457,-2.809 14.552,-5.74 22.59,-7.988 4.634,-1.299 9.337,-1.119 14.939,-1.736 4.563,-0.51 10.815,-2.332 14.595,-0.699 1.241,0.534 3.838,4.666 5.219,7.295 3.985,7.63 5.768,12.587 9.38,20.503 1.933,4.232 4.128,9.185 4.86,12.506 0.359,1.604 0.097,3.304 0.352,4.168 1.014,3.523 4.254,8.609 3.124,13.207 -6.546,2.217 -13.142,0.61 -19.804,1.044 -4.92,0.32 -9.637,2.271 -14.594,2.78 -3.784,0.387 -7.902,-0.681 -11.812,0 -1.886,0.33 -3.443,1.657 -5.559,2.088 C 8.447,0.062 4.444,-0.043 1.037,1.048 0.538,0.854 0.194,0.51 0,0 z m -38.225,14.599 c -3.196,2.941 -6.345,5.932 -11.123,7.296 -7.93,-13.157 -11.119,-32.885 -11.467,-52.469 11.622,-7.955 23.207,-15.947 38.925,-19.807 3.084,8.803 3.149,18.057 5.208,26.755 0.89,3.766 3.336,7.026 4.164,10.771 1.442,6.485 2.848,11.019 4.172,16.679 -9.692,3.866 -20.607,6.492 -29.879,10.775 z m -58.028,35.788 c -2.005,-4.003 -2.546,-8.211 -3.476,-12.852 -1.029,-5.14 -3.009,-10.121 -3.823,-14.946 -1.962,-11.613 0.767,-17.57 6.603,-23.974 5.754,-6.327 11.331,-12.596 18.76,-16.334 2.055,-1.758 3.385,-4.254 6.603,-4.856 2.754,5.007 1.029,9.196 2.084,15.287 0.226,1.298 1.402,2.417 1.736,3.816 1.313,5.481 1.241,13.774 3.124,19.807 1.047,3.336 5.273,9.144 4.868,12.161 -0.223,1.655 -4.072,4.577 -5.908,6.254 -2.63,2.405 -5.613,3.936 -6.944,5.559 -5.409,6.589 -10.513,14.75 -15.99,21.195 l -0.693,0 c -2.496,-2.983 -4.896,-7.016 -6.944,-11.117 z m 83.046,29.882 c -0.412,-0.167 -0.792,-0.368 -1.047,-0.695 -4.082,-3.762 -5.237,-9.591 -8.336,-14.596 -3.303,-5.332 -10.366,-12.968 -13.902,-18.761 -0.549,-0.906 -0.829,-2.583 -1.388,-3.474 -2.203,-3.51 -7.633,-8.112 -7.3,-10.773 0.19,-1.492 3.831,-3.279 5.908,-4.516 10.563,-6.291 23.91,-10.287 34.749,-13.899 1.804,2.378 3.099,4.551 4.52,8.34 0.95,2.549 1.588,8.778 4.863,7.989 C 6.392,29.518 6.883,26.573 6.941,25.718 7.274,20.542 2.726,16.102 3.82,11.471 13.53,5.689 26.687,6.668 38.563,3.827 c 1.703,-0.408 3.149,-1.746 4.86,-2.084 7.256,-1.449 14.942,-0.562 22.59,-0.351 2.435,4 1.972,8.702 2.776,13.551 1.37,8.216 5.161,16.422 3.131,26.758 -4.551,0.897 -8.336,-0.007 -12.503,0.346 -2.709,0.229 -5.151,1.648 -8,2.084 -1.804,0.278 -3.887,-0.368 -5.903,0 -1.93,0.348 -3.917,1.654 -5.911,2.432 -1.873,0.733 -4.018,1.418 -6.249,2.082 -3.941,1.175 -9.605,4.55 -12.166,3.824 C 17.12,51.317 17.084,45.232 14.584,41.694 11.471,41.238 10.391,37.227 7.292,37.875 6.919,45.453 12.242,50.273 12.5,58.378 2.917,64.659 -4.311,73.299 -13.207,80.269 z m 51.773,31.623 c -10.366,1.381 -21.571,5.499 -34.401,4.166 -2.992,-0.308 -6.019,-1.761 -9.032,-2.08 -1.539,-0.165 -3.103,0.222 -4.516,0 -2.009,-0.319 -3.788,-1.779 -5.908,-2.086 -6.083,-0.886 -8.87,-2.355 -13.551,-3.824 -3.332,-1.042 -6.746,-0.986 -9.727,-2.082 -2.013,-0.738 -3.591,-2.283 -5.56,-3.126 -1.453,-0.626 -3.038,-0.626 -4.523,-1.39 -1.786,-0.934 -3.486,-2.841 -5.556,-4.171 -2.023,-1.302 -3.831,-2.719 -5.56,-4.172 -3.895,-3.273 -8.45,-5.679 -11.463,-8.335 -1.833,-1.615 -2.816,-3.957 -4.516,-5.558 -2.816,-2.646 -6.065,-4.303 -7.644,-7.648 7.494,-12.771 15.442,-25.093 28.143,-32.663 3.433,3.282 5.219,8.382 8.339,13.207 1.988,3.065 6.159,6.453 9.035,10.073 2.565,3.23 4.76,6.979 7.645,10.078 3.113,3.348 5.735,6.937 8.342,9.727 1.79,1.921 4.889,3.641 5.212,5.56 0.664,4.042 -6.883,19.195 -2.088,20.154 7.296,1.458 5.528,-13.253 10.424,-14.247 3.838,0.503 7.22,6.053 11.119,3.128 -0.516,-4.925 -6.334,-4.55 -8.336,-7.992 2.135,-3.425 4.649,-7.123 7.647,-9.729 4.032,-3.504 8.699,-7.55 14.943,-8.685 6.715,9.611 12.22,20.437 18.752,30.23 3.49,2.763 6.284,6.228 8.343,10.423 -1.592,1.541 -3.676,0.791 -5.563,1.042 z m 41.697,26.058 c 0.854,-5.17 -2.263,-9.571 -4.864,-12.505 -4.404,-4.971 -10.387,-8.917 -13.551,-14.943 4.129,-1.688 7.949,-2.773 11.812,-5.213 2.195,-1.389 4.484,-3.628 6.951,-5.208 6.184,-3.957 12.141,-7.289 15.287,-13.901 3.684,-1.884 6.801,-6.277 9.38,-10.424 5.032,-8.081 7.798,-14.817 9.387,-26.754 0.473,-3.589 1.886,-9.184 0.34,-13.899 -3.353,1.481 -2.769,5.416 -3.475,7.988 -0.574,2.098 -1.743,4.085 -2.428,6.257 -2.73,8.65 -4.398,16.062 -9.732,22.233 -3.343,3.87 -6.592,8.63 -10.419,12.509 -1.618,1.643 -3.957,3.159 -5.908,5.214 -1.812,1.91 -3.906,4.135 -5.563,5.213 -1.683,1.094 -3.917,1.396 -5.556,2.43 -4.706,2.972 -8.731,7.23 -14.244,9.382 -5.968,-2.477 -7.496,-8.937 -11.463,-13.553 -0.954,-1.107 -2.823,-1.636 -3.824,-2.78 -1.23,-1.408 -1.377,-3.467 -2.435,-5.21 -1.467,-2.426 -4.172,-4.469 -5.56,-6.95 -0.566,-1.016 -0.52,-2.292 -1.04,-3.125 -1.539,-2.466 -7.604,-6.756 -6.944,-10.079 0.495,-2.52 9.53,-5.499 11.808,-6.95 3.96,-2.521 6.969,-3.161 12.855,-5.21 6.098,-2.125 13.11,-5.271 20.847,-3.824 1.772,10.372 -1.489,21.325 -1.044,28.497 5.757,1.671 5.943,-5.164 8.343,-7.994 1.861,-7.628 0.097,-20.459 6.596,-22.932 0.463,-3.006 -2.981,-2.11 -3.472,-4.168 C 81.877,28.047 81.092,14.354 77.835,3.135 81.357,-1.176 88.728,7.206 92.426,2.783 89.944,-2.03 82.749,-2.131 76.788,-3.472 70.797,-15.714 67.637,-29.843 62.196,-42.041 59.076,-49.035 51.081,-54.778 51.425,-63.58 c 6.808,-0.381 18.135,-0.126 26.41,-0.352 2.098,-0.057 4.724,0.976 5.907,-1.04 -1.782,-4.451 -10.366,-6.399 -16.686,-6.951 -7.912,-0.696 -18.408,2.618 -24.67,-0.696 -4.107,-2.174 -2.873,-8.658 -9.032,-6.951 -0.244,3.257 2.612,3.414 2.432,6.606 -4.232,1.479 -8.518,-0.753 -13.2,-0.351 -1.771,0.151 -3.471,1.184 -5.215,1.392 -2.087,0.251 -4.225,-0.162 -6.251,0 -3.211,0.254 -5.98,1.61 -9.036,2.084 -2.041,0.318 -4.691,-0.438 -6.951,0 -1.266,0.247 -3.917,2.769 -5.56,2.428 -2.898,-0.592 -2.453,-5.258 -2.428,-8.68 0.018,-2.63 -0.943,-5.445 -1.047,-7.647 -0.596,-13.15 2.295,-27.899 2.084,-40.654 -1.04,-0.459 -2.655,-0.351 -4.172,-0.351 -1.732,9.097 -5.675,19.275 -6.596,30.233 -0.355,4.229 0.34,8.619 0,12.856 -0.19,2.395 -1.263,4.609 -1.388,6.947 -0.223,4.157 2.105,8.286 0.348,12.167 -3.516,1.65 -7.106,1.349 -10.779,2.776 -1.854,0.725 -3.669,2.07 -5.556,2.78 -2.299,0.865 -4.77,0.958 -6.6,1.74 -4.752,2.026 -7.787,7.46 -13.554,7.64 -1.396,-2.417 -0.341,-7.296 -2.777,-8.688 -2.507,-0.064 -3.113,3.329 -3.819,5.216 -1.224,3.278 -3.1,5.875 -3.473,10.423 -8.016,7.51 -18.364,12.675 -26.761,19.802 -0.789,-4.967 2.744,-8.733 4.172,-12.159 1.897,-4.558 2.883,-9.042 4.859,-13.203 3.534,-7.432 9.645,-13.164 14.947,-19.455 3.321,-3.952 8.54,-7.532 8.336,-13.902 -3.928,-0.449 -5.664,3.428 -8.336,5.559 -3.748,2.985 -8.2,5.201 -11.471,8.343 -0.915,0.879 -1.459,2.429 -2.428,3.473 -1.456,1.556 -3.774,2.367 -4.867,3.816 -1.467,1.951 -2.045,5.1 -3.124,7.995 -1.224,3.268 -3.717,6.03 -4.861,8.684 -0.563,1.308 -0.545,2.927 -1.047,4.168 -2.479,6.205 -5.936,11.122 -7.988,17.03 -2.077,5.961 -4.566,12.446 -5.212,19.803 -0.118,1.316 0.316,2.837 0,4.168 -0.39,1.646 -2.227,3.475 -3.472,5.555 -1.241,2.078 -1.908,4.305 -2.78,6.263 -0.882,1.966 -2.658,3.641 -3.475,5.904 -1.891,5.206 -1.79,11.197 -0.7,17.719 6.432,-1.558 5.947,-10.037 10.427,-13.551 2.457,1.401 1.223,4.58 1.392,6.256 0.23,2.217 0.918,5.167 1.733,7.64 2.93,8.9 7.353,18.002 11.811,25.714 1.782,3.075 4.114,5.471 4.172,8.338 0.11,5.579 -6.64,9.033 -3.473,15.636 5.212,1.403 4.774,-6.318 8.681,-6.601 2.769,-0.199 3.68,3.296 5.211,4.862 2.285,2.333 5.521,3.273 6.256,6.255 6.492,4.247 11.391,9.624 17.726,14.245 5.807,4.245 11.406,7.205 19.455,10.425 1.779,0.716 3.425,2.115 5.208,2.779 2.428,0.904 5.786,1.206 8.684,2.087 2.791,0.843 5.312,2.418 7.651,2.778 5.53,0.85 11.435,0.818 16.327,1.39 2.306,0.271 5.004,0.193 7.296,0 11.545,-0.963 24.293,-3.212 32.665,-6.95 3.928,-1.755 9.347,-5.676 11.46,-5.559 2.289,0.125 3.59,3.563 5.56,5.559 1.746,1.765 4.386,3.689 6.603,5.906 4.39,4.389 9.552,8.795 15.294,11.467 0.625,0.31 3.056,1.435 4.516,0.364 z"
             id="path3009"
             style="fill:none;stroke:#bc1b8b;stroke-width:0.149;stroke-linecap:butt;stroke-linejoin:miter;stroke-miterlimit:4;stroke-opacity:1;stroke-dasharray:none" /></g><g
           transform="translate(342.9995,312.6987)"
           id="g3011"><path
             d="m 0,0 c -0.556,-2.841 -2.203,-5.631 -3.121,-8.559 -0.524,-1.669 -0.19,-3.29 -0.695,-4.757 -1.048,-3.037 -3.415,-5.537 -4.624,-8.372 -1.578,-3.71 -2.041,-7.814 -3.738,-11.428 -2.299,-4.884 -6.018,-8.935 -7.008,-14.442 2.815,-2.592 7.683,-2.292 10.578,-2.95 0.71,-0.158 1.815,-1.012 3.095,-1.383 2.633,-0.778 7.001,-1.16 10.764,-1.447 7.02,-0.535 11.234,-1.213 18.192,-1.372 2.407,-0.054 6.349,0.173 7.21,0.842 2.64,2.039 3.799,7.185 5.219,10.61 1.747,4.22 3.719,7.479 4.609,11.268 1.557,6.58 2.644,13.468 3.178,19.133 C 29.354,-8.008 14.48,-1.188 1.147,0.332 0.714,0.389 0.333,0.28 0,0 M 1.696,7.733 C 6.23,6.459 9.989,5.676 15.147,4.166 18.128,3.287 21.392,3.745 24.405,2.903 31.381,0.959 37.959,-2.617 45.409,-3.869 48.817,8.777 47.687,20.108 46.597,31.455 32.586,38.871 17.356,44.328 4.932,43.858 4.028,39.938 4.917,36.539 5.75,33.123 5.165,24.88 2.751,16.112 1.696,7.733 m -9.2,79.933 c -0.093,-0.163 -0.176,-0.327 -0.269,-0.491 2.428,-6.401 6.209,-13.215 8.763,-19.62 0.631,-1.575 0.549,-4.29 1.219,-7.097 0.474,-1.955 1.033,-5.825 2.127,-6.63 1.977,-1.469 7.744,-0.75 10.517,-1.311 5.014,-1.021 10.861,-4.323 15.258,-5.533 1.127,-0.31 2.378,0.088 3.39,-0.264 4.72,-1.634 7.016,-4.496 11.643,-4.503 0.835,2.514 -0.413,4.43 -0.861,6.578 0.262,6.724 -2.005,13.132 -4.229,19.687 -2.26,6.637 -5.409,10.904 -14.412,14.055 -3.73,1.311 -8.031,1.858 -12.077,3.136 -3.658,1.157 -6.854,2.418 -10.473,2.569 -3.702,0.149 -7.5,0.029 -10.596,-0.576 M -45.112,14.302 c 5.84,-2.988 11.335,-1.099 16.568,-4.327 -0.757,-2.452 -4.021,-1.648 -5.567,-3.677 -3.483,-0.387 -7.802,1.964 -10.212,-0.463 -1.521,-1.533 -1.345,-6.861 -2.052,-10.114 -0.397,-1.846 -0.753,-3.634 -0.968,-5.248 -0.23,-1.718 -0.082,-3.633 -0.585,-5.136 -0.538,-1.575 -1.804,-2.798 -2.313,-4.186 -0.803,-2.183 -0.753,-4.473 -1.647,-6.476 -1.384,-3.097 -3.511,-5.425 -4.648,-9.001 6.524,-5.487 13.82,-6.003 20.18,-8.248 3.755,-1.324 6.908,-3.492 10.695,-3.331 3.139,5.332 6.78,10.431 8.587,16.136 0.428,1.347 0.047,2.893 0.428,4.265 2.632,9.526 8.468,18.466 8.177,27.611 -2.859,2.582 -7.787,1.098 -11.323,3.357 -0.589,0.375 -2.476,1.878 -2.135,3.108 0.725,2.626 5.384,0.642 7.573,0.323 3.231,-0.477 5.275,-0.407 7.671,-0.061 1.686,9.095 4.072,20.113 3.745,30.06 -0.064,1.955 0.093,5.23 -0.893,5.954 -1.757,1.278 -7.141,-0.771 -10.481,-0.958 -0.857,-0.048 -2.152,0.411 -3.009,0.373 -5.488,-0.237 -13.666,-2.25 -18.734,-2.511 -4.76,-0.238 -9.341,1.222 -13.605,-0.199 -0.33,-0.052 -0.617,-0.243 -0.901,-0.466 1.457,-9.033 4.749,-17.53 5.449,-26.785 m -49.545,-1.881 c 3.777,-0.181 7.321,0.441 10.649,1.835 9.491,0.8 19.316,0.466 28.759,1.467 1.633,4.867 0.596,9.753 -0.308,13.986 -0.671,3.148 -2.314,6.373 -3.906,9.224 -3.225,-0.072 -5.233,-4.347 -8.92,-2.785 -0.553,3.914 4.698,4.136 6.556,6.657 1.22,3.862 -9.9,8.358 -6.011,12.961 2.557,3.027 10.337,-8.257 13.468,-9.363 1.489,-0.526 3.917,1.001 5.976,1.521 3.002,0.751 6.571,1.205 10.158,2.1 3.325,0.83 6.833,0.923 10.129,1.476 3.691,0.619 7.723,2.252 10.675,2.46 4.638,0.321 8.956,-0.407 12.622,0.743 -0.391,11.962 -6.019,22.414 -12.142,32.723 -2.991,0.182 -5.434,-1.468 -8.407,-2.427 -1.801,-0.581 -3.845,-0.358 -5.704,-1.026 -3.062,-1.096 -6.545,-3.382 -10.394,-4.864 -1.704,-0.656 -3.415,-1.382 -5.129,-2.309 -1.754,-0.946 -3.77,-1.401 -5.133,-2.31 -1.119,-0.743 -1.739,-1.871 -2.755,-2.655 -1.362,-1.066 -3.073,-1.582 -4.386,-2.718 -1.945,-1.688 -3.239,-4.123 -5.28,-6.078 -2.877,-2.743 -5.007,-4.143 -8.013,-8.106 -1.044,-1.383 -2.78,-2.074 -3.788,-3.372 -0.714,-0.915 -1.051,-2.176 -1.768,-3.2 -1.406,-2.01 -3.623,-3.587 -5.007,-5.588 -5.962,-8.574 -7.432,-18.121 -10.503,-26.006 -0.567,-1.432 -1.911,-2.617 -1.438,-4.346 M -125.988,0.48 c 4.143,3.022 9.279,4.958 14.111,6.349 2.435,0.705 4.827,1.824 6.764,2.371 2.185,0.617 5.13,0.194 6.112,1.763 0.915,1.453 0.251,6.828 0.545,10.3 0.624,7.394 4.018,17.31 7.855,25.861 0.757,1.704 1.762,3.644 2.852,5.17 2.317,3.243 4.605,7.445 7.375,11.03 1.173,1.517 3.271,2.686 4.957,4.329 1.761,1.711 3.289,3.974 4.874,5.341 1.173,1.003 2.805,1.621 4.014,2.604 5.424,4.444 9.713,7.255 14.997,9.712 5.749,2.675 11.481,4.045 17.023,6.985 2.403,-0.64 4.336,1.279 6.879,1.983 1.711,0.475 4.552,-0.247 5.488,1.79 1.331,2.884 -4.315,5.588 -1.284,8.738 5.926,-0.347 5.732,-6.473 9.724,-8.577 2.052,-1.086 4.666,-0.369 7.543,-0.308 7.21,0.147 15.388,-0.278 22.838,-1.689 2.073,-0.391 4.44,-1.051 6.101,-1.756 1.244,-0.535 3.02,-2.66 4.975,-1.463 -0.739,4.55 -6.934,7.519 -5.524,12.69 5.05,-1.779 9.34,-4.05 12.282,-7.431 1.283,-1.466 1.779,-3.373 2.833,-4.77 1.04,-1.388 2.353,-2.728 3.336,-4.415 0.997,-1.699 1.571,-3.718 2.583,-4.636 0.821,-0.741 2.066,-1.037 2.955,-1.632 4.964,-3.341 8.583,-7.638 11.991,-11.439 3.386,-3.768 5.52,-8.142 8.945,-12.324 0.686,-0.843 1.837,-1.462 2.543,-2.371 1.435,-1.847 2.418,-4.701 4.251,-6.846 1.636,-1.897 3.63,-3.534 4.441,-5.34 0.598,-1.344 0.268,-3.3 0.802,-4.939 0.36,-1.1 1.245,-2.093 1.514,-3.085 0.947,-3.546 0.768,-7.57 1.425,-11.389 0.47,-2.726 2.532,-5.473 0.681,-8.086 -4.598,2.346 -5.097,7.444 -6.592,11.349 -2.39,6.211 -4.061,12.791 -7.95,18.198 -2.169,3.031 -4.959,5.482 -7.445,8.612 -1.869,2.351 -3.15,6.33 -6.988,7.713 1.769,-8.737 1.385,-18.094 3.566,-26.707 3.077,-2.047 4.182,-4.391 6.029,-6.543 1.062,-1.237 3.221,-2.993 2.199,-4.745 -1.941,-1.18 -4.986,1.477 -7.245,1.429 -2.127,-4.157 0.534,-8.431 0.114,-12.593 -0.157,-1.6 -1.058,-3.386 -1.348,-5.359 -0.237,-1.618 0.011,-3.426 -0.205,-5.025 -0.423,-3.16 -2.044,-5.581 -2.238,-8.724 2.055,-2.765 5.89,-2.731 8.748,-4.512 1.614,-1.004 2.759,-2.631 4.38,-3.705 2.873,-1.896 6.259,-3.124 9.11,-5.029 7.404,-4.944 13.071,-11.714 18.839,-16.506 -0.585,-1.073 -1.141,-2.258 -1.876,-2.818 -9.122,4.842 -18.44,12.662 -27.995,17.382 -1.601,0.789 -3.968,1.205 -5.818,2.249 -2.422,1.359 -5.556,3.497 -7.11,1.675 -0.882,-1.035 -0.129,-3.899 -0.455,-4.894 -0.571,-1.767 -2.138,-3.348 -2.716,-4.92 -0.86,-2.354 -0.979,-4.842 -2.055,-7.22 -0.678,-1.497 -1.807,-2.855 -2.446,-4.433 -0.534,-1.315 -0.47,-2.927 -1.051,-4.236 -1.542,-3.476 -4.81,-5.642 -5.412,-9.219 2.195,-1.375 3.421,0.585 5.627,-0.858 -1.201,-5.035 -5.308,-1.622 -8.454,-3.684 -4.803,-3.135 -6.557,-11.873 -10.147,-17.212 -2.862,-4.257 -7.601,-9.579 -11.449,-9.1 -0.965,1.629 0.793,3.083 1.571,4.597 3.084,5.952 7.687,13.878 10.09,18.849 -6.105,3.691 -13.304,0.269 -19.484,0.793 -10.772,0.914 -22.02,4.203 -33.042,4.745 -3.279,-3.7 -6.163,-8.759 -10.542,-8.633 -1.69,4.347 7.134,6.292 5.459,10.477 -9.225,2.08 -19.232,6.881 -29.336,12.023 -1.658,0.457 -2.368,-2.333 -4.319,-0.833 0.789,5.578 -8.996,9.344 -13.67,13.652 -1.065,2.805 -5.836,5.61 -2.399,9.032 5.255,-2.49 11.74,-9.082 19.781,-11.882 4.057,4.916 4.57,11.119 5.449,16.268 0.846,4.973 1.571,7.355 1.334,11.152 -0.136,2.177 1.291,9.747 -0.301,11.087 -2.095,1.767 -7.511,-0.859 -9.857,-0.983 -0.796,-0.045 -1.686,0.49 -2.625,0.486 -2.3,-0.016 -4.807,-1.13 -7.099,-1.223 -1.65,-0.065 -3.164,0.639 -4.641,0.314 -1.209,-0.258 -2.318,-1.378 -3.469,-1.62 -4.824,-1.009 -10.004,0.433 -14.089,-2.824 -0.635,-4.751 0.811,-9.269 1.072,-13.765 0.094,-1.566 -0.566,-3.271 -0.448,-4.89 0.118,-1.595 0.875,-3.95 1.521,-5.978 0.696,-2.186 0.846,-4.437 1.385,-6.227 1.251,-4.228 3.346,-8.396 4.784,-12.281 2.285,-6.193 6.883,-10.273 11.952,-15.589 1.266,-1.335 2.22,-2.942 3.483,-4.169 1.542,-1.51 4.562,-2.635 4.304,-5.592 -3.946,0.751 -7.36,3.944 -9.713,5.685 -7.841,5.795 -11.536,10.386 -15.288,17.113 -1.933,3.45 -3.827,7.38 -3.719,10.723 -3.454,4.819 -3.483,10.346 -3.867,16.27 -0.158,2.371 -0.85,4.864 -0.972,6.964 -0.218,3.691 0.506,6.825 0.926,10.41 -5.51,0.115 -10.646,-2.578 -15.883,-3.758 -3.099,-0.695 -7.439,-1.179 -10.771,1.445 -0.197,1.469 1.549,2.745 2.005,3.077"
             id="path3013"
             style="fill:#83ba41;fill-opacity:1;fill-rule:nonzero;stroke:none" /></g><g
           transform="translate(342.9995,312.6987)"
           id="g3015"><path
             d="m 0,0 c -0.556,-2.841 -2.203,-5.631 -3.121,-8.559 -0.524,-1.669 -0.19,-3.29 -0.695,-4.757 -1.048,-3.037 -3.415,-5.537 -4.624,-8.372 -1.578,-3.71 -2.041,-7.814 -3.738,-11.428 -2.299,-4.884 -6.018,-8.935 -7.008,-14.442 2.815,-2.592 7.683,-2.292 10.578,-2.95 0.71,-0.158 1.815,-1.012 3.095,-1.383 2.633,-0.778 7.001,-1.16 10.764,-1.447 7.02,-0.535 11.234,-1.213 18.192,-1.372 2.407,-0.054 6.349,0.173 7.21,0.842 2.64,2.039 3.799,7.185 5.219,10.61 1.747,4.22 3.719,7.479 4.609,11.268 1.557,6.58 2.644,13.468 3.178,19.133 C 29.354,-8.008 14.48,-1.188 1.147,0.332 0.714,0.389 0.333,0.28 0,0 z M 1.696,7.733 C 6.23,6.459 9.989,5.676 15.147,4.166 18.128,3.287 21.392,3.745 24.405,2.903 31.381,0.959 37.959,-2.617 45.409,-3.869 48.817,8.777 47.687,20.108 46.597,31.455 32.586,38.871 17.356,44.328 4.932,43.858 4.028,39.938 4.917,36.539 5.75,33.123 5.165,24.88 2.751,16.112 1.696,7.733 z m -9.2,79.933 c -0.093,-0.163 -0.176,-0.327 -0.269,-0.491 2.428,-6.401 6.209,-13.215 8.763,-19.62 0.631,-1.575 0.549,-4.29 1.219,-7.097 0.474,-1.955 1.033,-5.825 2.127,-6.63 1.977,-1.469 7.744,-0.75 10.517,-1.311 5.014,-1.021 10.861,-4.323 15.258,-5.533 1.127,-0.31 2.378,0.088 3.39,-0.264 4.72,-1.634 7.016,-4.496 11.643,-4.503 0.835,2.514 -0.413,4.43 -0.861,6.578 0.262,6.724 -2.005,13.132 -4.229,19.687 -2.26,6.637 -5.409,10.904 -14.412,14.055 -3.73,1.311 -8.031,1.858 -12.077,3.136 -3.658,1.157 -6.854,2.418 -10.473,2.569 -3.702,0.149 -7.5,0.029 -10.596,-0.576 z M -45.112,14.302 c 5.84,-2.988 11.335,-1.099 16.568,-4.327 -0.757,-2.452 -4.021,-1.648 -5.567,-3.677 -3.483,-0.387 -7.802,1.964 -10.212,-0.463 -1.521,-1.533 -1.345,-6.861 -2.052,-10.114 -0.397,-1.846 -0.753,-3.634 -0.968,-5.248 -0.23,-1.718 -0.082,-3.633 -0.585,-5.136 -0.538,-1.575 -1.804,-2.798 -2.313,-4.186 -0.803,-2.183 -0.753,-4.473 -1.647,-6.476 -1.384,-3.097 -3.511,-5.425 -4.648,-9.001 6.524,-5.487 13.82,-6.003 20.18,-8.248 3.755,-1.324 6.908,-3.492 10.695,-3.331 3.139,5.332 6.78,10.431 8.587,16.136 0.428,1.347 0.047,2.893 0.428,4.265 2.632,9.526 8.468,18.466 8.177,27.611 -2.859,2.582 -7.787,1.098 -11.323,3.357 -0.589,0.375 -2.476,1.878 -2.135,3.108 0.725,2.626 5.384,0.642 7.573,0.323 3.231,-0.477 5.275,-0.407 7.671,-0.061 1.686,9.095 4.072,20.113 3.745,30.06 -0.064,1.955 0.093,5.23 -0.893,5.954 -1.757,1.278 -7.141,-0.771 -10.481,-0.958 -0.857,-0.048 -2.152,0.411 -3.009,0.373 -5.488,-0.237 -13.666,-2.25 -18.734,-2.511 -4.76,-0.238 -9.341,1.222 -13.605,-0.199 -0.33,-0.052 -0.617,-0.243 -0.901,-0.466 1.457,-9.033 4.749,-17.53 5.449,-26.785 z m -49.545,-1.881 c 3.777,-0.181 7.321,0.441 10.649,1.835 9.491,0.8 19.316,0.466 28.759,1.467 1.633,4.867 0.596,9.753 -0.308,13.986 -0.671,3.148 -2.314,6.373 -3.906,9.224 -3.225,-0.072 -5.233,-4.347 -8.92,-2.785 -0.553,3.914 4.698,4.136 6.556,6.657 1.22,3.862 -9.9,8.358 -6.011,12.961 2.557,3.027 10.337,-8.257 13.468,-9.363 1.489,-0.526 3.917,1.001 5.976,1.521 3.002,0.751 6.571,1.205 10.158,2.1 3.325,0.83 6.833,0.923 10.129,1.476 3.691,0.619 7.723,2.252 10.675,2.46 4.638,0.321 8.956,-0.407 12.622,0.743 -0.391,11.962 -6.019,22.414 -12.142,32.723 -2.991,0.182 -5.434,-1.468 -8.407,-2.427 -1.801,-0.581 -3.845,-0.358 -5.704,-1.026 -3.062,-1.096 -6.545,-3.382 -10.394,-4.864 -1.704,-0.656 -3.415,-1.382 -5.129,-2.309 -1.754,-0.946 -3.77,-1.401 -5.133,-2.31 -1.119,-0.743 -1.739,-1.871 -2.755,-2.655 -1.362,-1.066 -3.073,-1.582 -4.386,-2.718 -1.945,-1.688 -3.239,-4.123 -5.28,-6.078 -2.877,-2.743 -5.007,-4.143 -8.013,-8.106 -1.044,-1.383 -2.78,-2.074 -3.788,-3.372 -0.714,-0.915 -1.051,-2.176 -1.768,-3.2 -1.406,-2.01 -3.623,-3.587 -5.007,-5.588 -5.962,-8.574 -7.432,-18.121 -10.503,-26.006 -0.567,-1.432 -1.911,-2.617 -1.438,-4.346 z M -125.988,0.48 c 4.143,3.022 9.279,4.958 14.111,6.349 2.435,0.705 4.827,1.824 6.764,2.371 2.185,0.617 5.13,0.194 6.112,1.763 0.915,1.453 0.251,6.828 0.545,10.3 0.624,7.394 4.018,17.31 7.855,25.861 0.757,1.704 1.762,3.644 2.852,5.17 2.317,3.243 4.605,7.445 7.375,11.03 1.173,1.517 3.271,2.686 4.957,4.329 1.761,1.711 3.289,3.974 4.874,5.341 1.173,1.003 2.805,1.621 4.014,2.604 5.424,4.444 9.713,7.255 14.997,9.712 5.749,2.675 11.481,4.045 17.023,6.985 2.403,-0.64 4.336,1.279 6.879,1.983 1.711,0.475 4.552,-0.247 5.488,1.79 1.331,2.884 -4.315,5.588 -1.284,8.738 5.926,-0.347 5.732,-6.473 9.724,-8.577 2.052,-1.086 4.666,-0.369 7.543,-0.308 7.21,0.147 15.388,-0.278 22.838,-1.689 2.073,-0.391 4.44,-1.051 6.101,-1.756 1.244,-0.535 3.02,-2.66 4.975,-1.463 -0.739,4.55 -6.934,7.519 -5.524,12.69 5.05,-1.779 9.34,-4.05 12.282,-7.431 1.283,-1.466 1.779,-3.373 2.833,-4.77 1.04,-1.388 2.353,-2.728 3.336,-4.415 0.997,-1.699 1.571,-3.718 2.583,-4.636 0.821,-0.741 2.066,-1.037 2.955,-1.632 4.964,-3.341 8.583,-7.638 11.991,-11.439 3.386,-3.768 5.52,-8.142 8.945,-12.324 0.686,-0.843 1.837,-1.462 2.543,-2.371 1.435,-1.847 2.418,-4.701 4.251,-6.846 1.636,-1.897 3.63,-3.534 4.441,-5.34 0.598,-1.344 0.268,-3.3 0.802,-4.939 0.36,-1.1 1.245,-2.093 1.514,-3.085 0.947,-3.546 0.768,-7.57 1.425,-11.389 0.47,-2.726 2.532,-5.473 0.681,-8.086 -4.598,2.346 -5.097,7.444 -6.592,11.349 -2.39,6.211 -4.061,12.791 -7.95,18.198 -2.169,3.031 -4.959,5.482 -7.445,8.612 -1.869,2.351 -3.15,6.33 -6.988,7.713 1.769,-8.737 1.385,-18.094 3.566,-26.707 3.077,-2.047 4.182,-4.391 6.029,-6.543 1.062,-1.237 3.221,-2.993 2.199,-4.745 -1.941,-1.18 -4.986,1.477 -7.245,1.429 -2.127,-4.157 0.534,-8.431 0.114,-12.593 -0.157,-1.6 -1.058,-3.386 -1.348,-5.359 -0.237,-1.618 0.011,-3.426 -0.205,-5.025 -0.423,-3.16 -2.044,-5.581 -2.238,-8.724 2.055,-2.765 5.89,-2.731 8.748,-4.512 1.614,-1.004 2.759,-2.631 4.38,-3.705 2.873,-1.896 6.259,-3.124 9.11,-5.029 7.404,-4.944 13.071,-11.714 18.839,-16.506 -0.585,-1.073 -1.141,-2.258 -1.876,-2.818 -9.122,4.842 -18.44,12.662 -27.995,17.382 -1.601,0.789 -3.968,1.205 -5.818,2.249 -2.422,1.359 -5.556,3.497 -7.11,1.675 -0.882,-1.035 -0.129,-3.899 -0.455,-4.894 -0.571,-1.767 -2.138,-3.348 -2.716,-4.92 -0.86,-2.354 -0.979,-4.842 -2.055,-7.22 -0.678,-1.497 -1.807,-2.855 -2.446,-4.433 -0.534,-1.315 -0.47,-2.927 -1.051,-4.236 -1.542,-3.476 -4.81,-5.642 -5.412,-9.219 2.195,-1.375 3.421,0.585 5.627,-0.858 -1.201,-5.035 -5.308,-1.622 -8.454,-3.684 -4.803,-3.135 -6.557,-11.873 -10.147,-17.212 -2.862,-4.257 -7.601,-9.579 -11.449,-9.1 -0.965,1.629 0.793,3.083 1.571,4.597 3.084,5.952 7.687,13.878 10.09,18.849 -6.105,3.691 -13.304,0.269 -19.484,0.793 -10.772,0.914 -22.02,4.203 -33.042,4.745 -3.279,-3.7 -6.163,-8.759 -10.542,-8.633 -1.69,4.347 7.134,6.292 5.459,10.477 -9.225,2.08 -19.232,6.881 -29.336,12.023 -1.658,0.457 -2.368,-2.333 -4.319,-0.833 0.789,5.578 -8.996,9.344 -13.67,13.652 -1.065,2.805 -5.836,5.61 -2.399,9.032 5.255,-2.49 11.74,-9.082 19.781,-11.882 4.057,4.916 4.57,11.119 5.449,16.268 0.846,4.973 1.571,7.355 1.334,11.152 -0.136,2.177 1.291,9.747 -0.301,11.087 -2.095,1.767 -7.511,-0.859 -9.857,-0.983 -0.796,-0.045 -1.686,0.49 -2.625,0.486 -2.3,-0.016 -4.807,-1.13 -7.099,-1.223 -1.65,-0.065 -3.164,0.639 -4.641,0.314 -1.209,-0.258 -2.318,-1.378 -3.469,-1.62 -4.824,-1.009 -10.004,0.433 -14.089,-2.824 -0.635,-4.751 0.811,-9.269 1.072,-13.765 0.094,-1.566 -0.566,-3.271 -0.448,-4.89 0.118,-1.595 0.875,-3.95 1.521,-5.978 0.696,-2.186 0.846,-4.437 1.385,-6.227 1.251,-4.228 3.346,-8.396 4.784,-12.281 2.285,-6.193 6.883,-10.273 11.952,-15.589 1.266,-1.335 2.22,-2.942 3.483,-4.169 1.542,-1.51 4.562,-2.635 4.304,-5.592 -3.946,0.751 -7.36,3.944 -9.713,5.685 -7.841,5.795 -11.536,10.386 -15.288,17.113 -1.933,3.45 -3.827,7.38 -3.719,10.723 -3.454,4.819 -3.483,10.346 -3.867,16.27 -0.158,2.371 -0.85,4.864 -0.972,6.964 -0.218,3.691 0.506,6.825 0.926,10.41 -5.51,0.115 -10.646,-2.578 -15.883,-3.758 -3.099,-0.695 -7.439,-1.179 -10.771,1.445 -0.197,1.469 1.549,2.745 2.005,3.077 z"
             id="path3017"
             style="fill:none;stroke:#83ba41;stroke-width:0.118;stroke-linecap:butt;stroke-linejoin:miter;stroke-miterlimit:4;stroke-opacity:1;stroke-dasharray:none" /></g><g
           transform="translate(141.6514,376.4224)"
           id="g3019"><path
             d="m 0,0 c -8.045,5.834 -19.581,9.529 -29.817,14.016 -2.536,-3.361 -5.384,-7.665 -7.82,-12.037 -1.399,-2.515 -1.954,-5.279 -3.099,-8.458 -0.936,-2.583 -2.869,-5.973 -2.45,-8.404 0.141,-0.793 2.185,-2.886 3.523,-4.055 3.881,-3.388 6.524,-5.121 10.628,-8.333 2.199,-1.718 4.774,-3.689 6.599,-4.585 0.887,-0.435 1.912,-0.519 2.386,-0.788 1.904,-1.083 4.415,-3.678 7.249,-3.666 2.206,3.507 2.198,7.572 3.379,11.391 0.879,2.82 2.672,5.292 3.662,8.109 0.753,2.152 0.714,4.697 1.65,6.882 0.459,1.054 1.449,1.773 1.994,2.947 0.954,2.058 1.456,4.4 2.568,6.233 C 0.409,-0.43 0.258,-0.177 0,0 m 13.845,20.221 c 2.16,1.447 4.344,2.866 5.811,5.454 -6.556,6.462 -17.597,11.083 -28.964,14.023 -6.255,-5.653 -12.528,-11.281 -16.98,-19.895 4.703,-3.027 10.079,-4.362 14.853,-6.779 2.066,-1.045 3.627,-2.927 5.693,-3.935 C -2.17,7.341 0.269,5.892 3.39,4.326 6.995,9.428 10.051,15.422 13.845,20.221 m 28.968,28.79 c -2.055,1.725 -4.423,2.629 -7.005,3.823 -2.845,1.315 -5.467,3.167 -8.167,4.317 -6.493,2.767 -10.341,2.011 -14.89,-0.489 -4.487,-2.47 -8.92,-4.839 -12.134,-8.645 -1.316,-0.95 -2.952,-1.375 -3.755,-3.16 2.532,-2.308 5.211,-1.89 8.608,-3.355 0.732,-0.314 1.22,-1.159 1.988,-1.548 3.005,-1.532 7.84,-2.647 11.097,-4.595 1.79,-1.076 4.584,-4.349 6.403,-4.535 0.993,-0.101 3.235,1.732 4.469,2.566 1.764,1.196 3.073,2.722 4.211,3.271 4.587,2.224 10.061,4.057 14.58,6.344 0.032,0.136 0.065,0.268 0.097,0.405 -1.388,1.869 -3.404,3.833 -5.502,5.601 m 5.778,-52.553 c -0.036,0.264 -0.104,0.513 -0.258,0.707 -1.621,2.901 -4.853,4.394 -7.332,6.899 -2.639,2.672 -6.105,7.852 -8.981,10.719 -0.445,0.448 -1.385,0.847 -1.826,1.295 -1.739,1.772 -3.658,5.581 -5.258,5.757 -0.89,0.097 -2.443,-1.772 -3.458,-2.807 C 16.338,13.756 12.142,6.542 8.522,0.734 c 1.13,-1.383 2.221,-2.44 4.222,-3.799 1.353,-0.911 4.885,-2.157 3.978,-3.953 -0.434,-0.842 -2.217,-0.719 -2.726,-0.631 -3.056,0.533 -5.007,3.8 -7.855,3.816 C 1.414,-8.684 0.144,-16.483 -3.17,-23 c -0.481,-0.942 -1.464,-1.593 -1.898,-2.542 -1.862,-4.019 -2.414,-8.621 -3.365,-13.106 1.988,-1.977 4.796,-2.369 7.501,-3.515 4.595,-1.944 8.841,-5.307 15.147,-5.565 1.162,2.52 1.162,4.853 1.955,7.234 0.505,1.541 1.682,2.767 2.324,4.364 0.416,1.013 0.33,2.313 0.836,3.438 0.473,1.076 1.503,2.05 2.238,3.103 0.685,0.989 1.388,2.141 2.087,3.35 1.241,2.13 3.992,4.955 3.931,6.549 -0.104,2.529 -3.64,3.402 -5.347,5.354 0.165,1.876 -2.023,3.072 -1.213,4.784 4.47,-0.846 6.528,-4.619 11.216,-5.904 4.997,4.71 11.044,7.712 16.349,11.914 m 11.17,-34.577 c 2.26,5.845 6.223,11.79 7.245,19.453 0.241,1.785 -0.183,3.752 0.05,5.553 0.115,0.918 0.56,1.777 0.632,2.633 0.093,1.212 -0.506,2.453 -0.388,3.73 0.337,3.669 -0.133,5.5 -0.326,8.431 -0.143,2.084 0.366,4.065 0.147,5.959 -0.151,1.274 -0.829,2.409 -1.044,3.673 -0.158,0.933 0.061,1.858 -0.179,2.825 -0.294,1.173 -1.166,2.428 -1.647,3.818 -0.48,1.363 -1.047,2.616 -1.653,3.823 -1.36,2.73 -2.134,5.72 -3.25,7.846 -0.688,1.292 -1.911,2.192 -2.611,3.412 -1.144,2.005 -1.65,4.128 -3.383,5.52 -8.489,-2.582 -16.775,-5.484 -22.962,-11.822 1.431,-2.461 4.15,-4.211 6.527,-6.706 1.507,-1.584 2.892,-4.489 4.602,-6.67 1.525,-1.947 3.394,-3.753 4.8,-5.86 1.517,-2.284 3.242,-4.312 4.498,-6.22 0.868,-1.309 1.434,-3.361 2.514,-3.815 2.26,-0.954 12.138,1.326 12.027,-1.605 -0.169,-4.457 -8.49,-1.363 -9.76,-4.076 -0.24,-2.307 2.518,-5.051 0.265,-6.914 -2.794,0.992 -1.761,4.328 -3.483,5.976 -2.295,-0.762 -4.799,-1.708 -6.736,-3.091 -2.604,-1.859 -5.617,-4.008 -7.148,-7.487 4.652,-5.258 10.187,-9.98 14.975,-15.158 1.123,-2.421 2.744,-4.532 4.903,-6.318 1.119,0.707 0.979,2.03 1.385,3.09 m 9.347,-27.933 c -3.131,0.228 -5.265,2.662 -6.607,4.583 -2.277,3.262 -3.737,7.297 -6.808,9.985 -1.553,-2.17 -2.726,-4.245 -4.688,-6.153 -1.112,-1.083 -2.733,-2.1 -4.01,-3.316 -3.163,-3.047 -5.943,-6.051 -10.233,-6.96 -1.611,-1.881 -4.602,-3.083 -7.382,-4.005 -5.405,-1.797 -9.72,-2.464 -16.898,-1.72 -2.155,0.224 -5.609,0.185 -8.145,1.742 1.341,1.743 3.547,0.852 5.14,0.903 1.305,0.043 2.629,0.449 3.988,0.542 5.424,0.378 9.972,0.308 14.312,2.555 2.726,1.407 5.947,2.633 8.744,4.319 1.184,0.716 2.396,1.864 3.864,2.712 1.366,0.787 2.951,1.695 3.816,2.507 0.872,0.827 1.36,2.089 2.188,2.897 2.4,2.326 5.438,4.072 7.468,6.985 -0.61,3.822 -4.161,5.617 -6.288,8.578 -0.513,0.708 -0.567,1.872 -1.09,2.616 -0.643,0.913 -1.826,1.284 -2.694,2.145 -1.205,1.197 -2.019,3.054 -3.268,4.211 -0.516,0.472 -1.262,0.626 -1.679,1.044 -1.222,1.243 -2.869,5.377 -4.896,5.459 -1.538,0.061 -4.54,-4.786 -5.699,-5.909 -2.03,-1.953 -2.816,-3.616 -4.835,-6.758 -2.088,-3.253 -4.903,-6.897 -5.143,-11.607 5.792,-2.484 12.625,-2.119 16.735,-3.382 0.173,-3.584 -3.833,-2.735 -5.817,-3.736 -4.706,-0.019 -11.933,2.805 -14.279,-0.638 -1.815,0.156 -0.815,2.034 -1.945,2.609 -8.088,2.235 -15.95,4.611 -22.034,8.079 -3.002,-1.45 0.847,-6.917 -2.245,-8.45 -2.453,2.12 -1.503,6.323 -1.452,9.98 -6.292,5.203 -14.075,9.021 -20.424,13.898 -3.637,2.794 -5.857,8.256 -11.04,9.288 -1.166,-3.915 -2.608,-10.549 -3.899,-15.334 -0.327,-1.214 -0.094,-2.889 -1.431,-3.298 -2.343,1.66 -2.278,6.931 -1.715,10.687 0.707,4.709 4.103,10.362 3.052,14.467 -0.695,2.696 -4.645,2.884 -2.783,6.235 1.926,-0.316 1.621,-1.999 3.501,-2.341 1.46,2.256 0.757,5.068 1.646,7.74 0.341,1.008 1.177,1.855 1.539,2.841 0.437,1.182 0.502,2.486 0.871,3.644 0.603,1.833 1.78,3.256 2.483,4.968 0.47,1.15 0.401,2.794 0.975,4.048 0.319,0.703 2.16,1.895 2.192,2.902 0.057,1.768 -2.719,2.166 -4.717,2.629 -1.531,0.355 -3.034,1.309 -4.304,1.675 -7.575,2.189 -16.571,2.566 -23.971,4.476 -0.122,0.673 0.165,1.596 0.38,2.477 5.538,-0.262 12.02,0.606 18.534,-0.384 2.507,-0.383 4.967,-1.404 7.482,-1.804 1.427,-0.223 2.859,0.095 4.243,-0.162 2.45,-0.455 4.527,-2.385 7.037,-1.9 1.456,1.815 1.783,3.943 3.128,5.884 0.678,0.981 1.722,1.847 2.392,2.849 0.832,1.22 1.231,2.644 1.937,3.602 1.844,2.482 5.435,3.488 6.346,6.82 -1.209,1.155 -4.201,1.222 -4.667,2.835 0.312,1.471 2.371,1.351 3.576,1.498 2.073,0.249 3.849,0.981 6.55,0.563 5.495,3.614 9.953,8.922 15.279,12.81 -2.779,1.156 -5.466,-0.374 -7.661,-0.726 -2.927,-0.469 -5.671,-0.416 -8.375,-0.986 -4.817,-1.017 -9.017,-3.775 -13.419,-5.978 -2.765,-1.384 -5.581,-3.922 -9.268,-2.912 0.29,2.351 2.794,2.821 4.405,4.077 2.263,1.764 4.171,4.049 6.463,5.509 0.642,0.41 1.618,0.507 2.364,0.932 1.108,0.639 1.912,1.871 2.909,2.307 1.341,0.585 3.249,0.479 5.09,0.701 2.073,0.255 4.035,1.323 5.742,1.617 0.836,0.144 1.776,-0.093 2.576,0.024 3.96,0.584 7.306,1.903 11.029,2.272 3.766,0.371 7.894,0.915 12.274,0.262 0.775,-0.113 1.603,-0.579 2.421,-0.583 1.015,-0.002 2.335,0.814 3.72,1.245 1.381,0.43 2.78,0.504 4.035,0.746 1.277,0.237 2.493,1.033 3.928,1.194 3.292,0.373 6.775,-0.522 10.419,-2.071 -1.804,-3.526 -6.671,-2.059 -9.347,-4.177 0.466,-1.632 2.497,-1.351 3.451,-1.686 1.259,-0.446 2.873,-1.261 4.203,-2.082 4.775,-2.95 9.459,-6.801 13.326,-10.477 1.542,-1.469 2.608,-3.166 4.272,-3.598 3.235,-0.842 6.19,2.601 9.598,-0.165 0.083,-3.233 -4.351,-1.897 -5.068,-4.134 -0.499,-1.585 1.41,-2.604 2.109,-3.716 1.033,-1.653 1.13,-3.671 2.762,-4.521 1.567,-4.374 4.014,-7.981 5.818,-12.313 1.657,-3.978 2.6,-7.653 3.346,-12.793 0.165,-1.135 0.761,-2.29 0.89,-3.422 0.193,-1.542 -0.104,-3.538 0,-5.355 0.107,-1.736 0.671,-3.427 0.552,-4.839 -0.28,-3.341 -1.126,-6.777 -1.478,-9.708 -0.165,-1.38 -0.585,-2.936 -1.026,-4.248 -2.166,-6.587 -5.265,-13.698 -8.615,-18.051 -1.571,-2.044 -4.616,-4.652 -4.839,-5.9 -0.251,-1.349 1.568,-2.588 2.457,-4.017 0.786,-1.263 1.535,-3.069 2.511,-4.672 1.944,-3.17 3.791,-6.792 4.545,-10.508 0.075,-0.404 0.394,-1.975 -0.431,-2.678"
             id="path3021"
             style="fill:#ec7d23;fill-opacity:1;fill-rule:nonzero;stroke:none" /></g><g
           transform="translate(141.6514,376.4224)"
           id="g3023"><path
             d="m 0,0 c -8.045,5.834 -19.581,9.529 -29.817,14.016 -2.536,-3.361 -5.384,-7.665 -7.82,-12.037 -1.399,-2.515 -1.954,-5.279 -3.099,-8.458 -0.936,-2.583 -2.869,-5.973 -2.45,-8.404 0.141,-0.793 2.185,-2.886 3.523,-4.055 3.881,-3.388 6.524,-5.121 10.628,-8.333 2.199,-1.718 4.774,-3.689 6.599,-4.585 0.887,-0.435 1.912,-0.519 2.386,-0.788 1.904,-1.083 4.415,-3.678 7.249,-3.666 2.206,3.507 2.198,7.572 3.379,11.391 0.879,2.82 2.672,5.292 3.662,8.109 0.753,2.152 0.714,4.697 1.65,6.882 0.459,1.054 1.449,1.773 1.994,2.947 0.954,2.058 1.456,4.4 2.568,6.233 C 0.409,-0.43 0.258,-0.177 0,0 z m 13.845,20.221 c 2.16,1.447 4.344,2.866 5.811,5.454 -6.556,6.462 -17.597,11.083 -28.964,14.023 -6.255,-5.653 -12.528,-11.281 -16.98,-19.895 4.703,-3.027 10.079,-4.362 14.853,-6.779 2.066,-1.045 3.627,-2.927 5.693,-3.935 C -2.17,7.341 0.269,5.892 3.39,4.326 6.995,9.428 10.051,15.422 13.845,20.221 z m 28.968,28.79 c -2.055,1.725 -4.423,2.629 -7.005,3.823 -2.845,1.315 -5.467,3.167 -8.167,4.317 -6.493,2.767 -10.341,2.011 -14.89,-0.489 -4.487,-2.47 -8.92,-4.839 -12.134,-8.645 -1.316,-0.95 -2.952,-1.375 -3.755,-3.16 2.532,-2.308 5.211,-1.89 8.608,-3.355 0.732,-0.314 1.22,-1.159 1.988,-1.548 3.005,-1.532 7.84,-2.647 11.097,-4.595 1.79,-1.076 4.584,-4.349 6.403,-4.535 0.993,-0.101 3.235,1.732 4.469,2.566 1.764,1.196 3.073,2.722 4.211,3.271 4.587,2.224 10.061,4.057 14.58,6.344 0.032,0.136 0.065,0.268 0.097,0.405 -1.388,1.869 -3.404,3.833 -5.502,5.601 z m 5.778,-52.553 c -0.036,0.264 -0.104,0.513 -0.258,0.707 -1.621,2.901 -4.853,4.394 -7.332,6.899 -2.639,2.672 -6.105,7.852 -8.981,10.719 -0.445,0.448 -1.385,0.847 -1.826,1.295 -1.739,1.772 -3.658,5.581 -5.258,5.757 -0.89,0.097 -2.443,-1.772 -3.458,-2.807 C 16.338,13.756 12.142,6.542 8.522,0.734 c 1.13,-1.383 2.221,-2.44 4.222,-3.799 1.353,-0.911 4.885,-2.157 3.978,-3.953 -0.434,-0.842 -2.217,-0.719 -2.726,-0.631 -3.056,0.533 -5.007,3.8 -7.855,3.816 C 1.414,-8.684 0.144,-16.483 -3.17,-23 c -0.481,-0.942 -1.464,-1.593 -1.898,-2.542 -1.862,-4.019 -2.414,-8.621 -3.365,-13.106 1.988,-1.977 4.796,-2.369 7.501,-3.515 4.595,-1.944 8.841,-5.307 15.147,-5.565 1.162,2.52 1.162,4.853 1.955,7.234 0.505,1.541 1.682,2.767 2.324,4.364 0.416,1.013 0.33,2.313 0.836,3.438 0.473,1.076 1.503,2.05 2.238,3.103 0.685,0.989 1.388,2.141 2.087,3.35 1.241,2.13 3.992,4.955 3.931,6.549 -0.104,2.529 -3.64,3.402 -5.347,5.354 0.165,1.876 -2.023,3.072 -1.213,4.784 4.47,-0.846 6.528,-4.619 11.216,-5.904 4.997,4.71 11.044,7.712 16.349,11.914 z m 11.17,-34.577 c 2.26,5.845 6.223,11.79 7.245,19.453 0.241,1.785 -0.183,3.752 0.05,5.553 0.115,0.918 0.56,1.777 0.632,2.633 0.093,1.212 -0.506,2.453 -0.388,3.73 0.337,3.669 -0.133,5.5 -0.326,8.431 -0.143,2.084 0.366,4.065 0.147,5.959 -0.151,1.274 -0.829,2.409 -1.044,3.673 -0.158,0.933 0.061,1.858 -0.179,2.825 -0.294,1.173 -1.166,2.428 -1.647,3.818 -0.48,1.363 -1.047,2.616 -1.653,3.823 -1.36,2.73 -2.134,5.72 -3.25,7.846 -0.688,1.292 -1.911,2.192 -2.611,3.412 -1.144,2.005 -1.65,4.128 -3.383,5.52 -8.489,-2.582 -16.775,-5.484 -22.962,-11.822 1.431,-2.461 4.15,-4.211 6.527,-6.706 1.507,-1.584 2.892,-4.489 4.602,-6.67 1.525,-1.947 3.394,-3.753 4.8,-5.86 1.517,-2.284 3.242,-4.312 4.498,-6.22 0.868,-1.309 1.434,-3.361 2.514,-3.815 2.26,-0.954 12.138,1.326 12.027,-1.605 -0.169,-4.457 -8.49,-1.363 -9.76,-4.076 -0.24,-2.307 2.518,-5.051 0.265,-6.914 -2.794,0.992 -1.761,4.328 -3.483,5.976 -2.295,-0.762 -4.799,-1.708 -6.736,-3.091 -2.604,-1.859 -5.617,-4.008 -7.148,-7.487 4.652,-5.258 10.187,-9.98 14.975,-15.158 1.123,-2.421 2.744,-4.532 4.903,-6.318 1.119,0.707 0.979,2.03 1.385,3.09 z m 9.347,-27.933 c -3.131,0.228 -5.265,2.662 -6.607,4.583 -2.277,3.262 -3.737,7.297 -6.808,9.985 -1.553,-2.17 -2.726,-4.245 -4.688,-6.153 -1.112,-1.083 -2.733,-2.1 -4.01,-3.316 -3.163,-3.047 -5.943,-6.051 -10.233,-6.96 -1.611,-1.881 -4.602,-3.083 -7.382,-4.005 -5.405,-1.797 -9.72,-2.464 -16.898,-1.72 -2.155,0.224 -5.609,0.185 -8.145,1.742 1.341,1.743 3.547,0.852 5.14,0.903 1.305,0.043 2.629,0.449 3.988,0.542 5.424,0.378 9.972,0.308 14.312,2.555 2.726,1.407 5.947,2.633 8.744,4.319 1.184,0.716 2.396,1.864 3.864,2.712 1.366,0.787 2.951,1.695 3.816,2.507 0.872,0.827 1.36,2.089 2.188,2.897 2.4,2.326 5.438,4.072 7.468,6.985 -0.61,3.822 -4.161,5.617 -6.288,8.578 -0.513,0.708 -0.567,1.872 -1.09,2.616 -0.643,0.913 -1.826,1.284 -2.694,2.145 -1.205,1.197 -2.019,3.054 -3.268,4.211 -0.516,0.472 -1.262,0.626 -1.679,1.044 -1.222,1.243 -2.869,5.377 -4.896,5.459 -1.538,0.061 -4.54,-4.786 -5.699,-5.909 -2.03,-1.953 -2.816,-3.616 -4.835,-6.758 -2.088,-3.253 -4.903,-6.897 -5.143,-11.607 5.792,-2.484 12.625,-2.119 16.735,-3.382 0.173,-3.584 -3.833,-2.735 -5.817,-3.736 -4.706,-0.019 -11.933,2.805 -14.279,-0.638 -1.815,0.156 -0.815,2.034 -1.945,2.609 -8.088,2.235 -15.95,4.611 -22.034,8.079 -3.002,-1.45 0.847,-6.917 -2.245,-8.45 -2.453,2.12 -1.503,6.323 -1.452,9.98 -6.292,5.203 -14.075,9.021 -20.424,13.898 -3.637,2.794 -5.857,8.256 -11.04,9.288 -1.166,-3.915 -2.608,-10.549 -3.899,-15.334 -0.327,-1.214 -0.094,-2.889 -1.431,-3.298 -2.343,1.66 -2.278,6.931 -1.715,10.687 0.707,4.709 4.103,10.362 3.052,14.467 -0.695,2.696 -4.645,2.884 -2.783,6.235 1.926,-0.316 1.621,-1.999 3.501,-2.341 1.46,2.256 0.757,5.068 1.646,7.74 0.341,1.008 1.177,1.855 1.539,2.841 0.437,1.182 0.502,2.486 0.871,3.644 0.603,1.833 1.78,3.256 2.483,4.968 0.47,1.15 0.401,2.794 0.975,4.048 0.319,0.703 2.16,1.895 2.192,2.902 0.057,1.768 -2.719,2.166 -4.717,2.629 -1.531,0.355 -3.034,1.309 -4.304,1.675 -7.575,2.189 -16.571,2.566 -23.971,4.476 -0.122,0.673 0.165,1.596 0.38,2.477 5.538,-0.262 12.02,0.606 18.534,-0.384 2.507,-0.383 4.967,-1.404 7.482,-1.804 1.427,-0.223 2.859,0.095 4.243,-0.162 2.45,-0.455 4.527,-2.385 7.037,-1.9 1.456,1.815 1.783,3.943 3.128,5.884 0.678,0.981 1.722,1.847 2.392,2.849 0.832,1.22 1.231,2.644 1.937,3.602 1.844,2.482 5.435,3.488 6.346,6.82 -1.209,1.155 -4.201,1.222 -4.667,2.835 0.312,1.471 2.371,1.351 3.576,1.498 2.073,0.249 3.849,0.981 6.55,0.563 5.495,3.614 9.953,8.922 15.279,12.81 -2.779,1.156 -5.466,-0.374 -7.661,-0.726 -2.927,-0.469 -5.671,-0.416 -8.375,-0.986 -4.817,-1.017 -9.017,-3.775 -13.419,-5.978 -2.765,-1.384 -5.581,-3.922 -9.268,-2.912 0.29,2.351 2.794,2.821 4.405,4.077 2.263,1.764 4.171,4.049 6.463,5.509 0.642,0.41 1.618,0.507 2.364,0.932 1.108,0.639 1.912,1.871 2.909,2.307 1.341,0.585 3.249,0.479 5.09,0.701 2.073,0.255 4.035,1.323 5.742,1.617 0.836,0.144 1.776,-0.093 2.576,0.024 3.96,0.584 7.306,1.903 11.029,2.272 3.766,0.371 7.894,0.915 12.274,0.262 0.775,-0.113 1.603,-0.579 2.421,-0.583 1.015,-0.002 2.335,0.814 3.72,1.245 1.381,0.43 2.78,0.504 4.035,0.746 1.277,0.237 2.493,1.033 3.928,1.194 3.292,0.373 6.775,-0.522 10.419,-2.071 -1.804,-3.526 -6.671,-2.059 -9.347,-4.177 0.466,-1.632 2.497,-1.351 3.451,-1.686 1.259,-0.446 2.873,-1.261 4.203,-2.082 4.775,-2.95 9.459,-6.801 13.326,-10.477 1.542,-1.469 2.608,-3.166 4.272,-3.598 3.235,-0.842 6.19,2.601 9.598,-0.165 0.083,-3.233 -4.351,-1.897 -5.068,-4.134 -0.499,-1.585 1.41,-2.604 2.109,-3.716 1.033,-1.653 1.13,-3.671 2.762,-4.521 1.567,-4.374 4.014,-7.981 5.818,-12.313 1.657,-3.978 2.6,-7.653 3.346,-12.793 0.165,-1.135 0.761,-2.29 0.89,-3.422 0.193,-1.542 -0.104,-3.538 0,-5.355 0.107,-1.736 0.671,-3.427 0.552,-4.839 -0.28,-3.341 -1.126,-6.777 -1.478,-9.708 -0.165,-1.38 -0.585,-2.936 -1.026,-4.248 -2.166,-6.587 -5.265,-13.698 -8.615,-18.051 -1.571,-2.044 -4.616,-4.652 -4.839,-5.9 -0.251,-1.349 1.568,-2.588 2.457,-4.017 0.786,-1.263 1.535,-3.069 2.511,-4.672 1.944,-3.17 3.791,-6.792 4.545,-10.508 0.075,-0.404 0.394,-1.975 -0.431,-2.678 z"
             id="path3025"
             style="fill:none;stroke:#ec7d23;stroke-width:0.146;stroke-linecap:butt;stroke-linejoin:miter;stroke-miterlimit:4;stroke-opacity:1;stroke-dasharray:none" /></g><g
           transform="translate(80.2017,382.6313)"
           id="g3027"><path
             d="m 0,0 c -4.118,-11.386 -4.537,-24.952 -4.318,-35.782 l -0.973,-0.178 -0.882,-0.447 c -0.875,1.236 -0.373,3.499 -0.559,5.702 -0.173,2.089 -0.456,2.281 -0.144,4.744 0.721,5.713 -1.291,13.593 0.466,20.65 0.585,2.347 0.696,5.311 1.446,7.79 0.344,1.169 1.435,2.275 2.188,3.753 0.793,1.58 2.066,4.746 3.942,3.975 C 3.608,9.209 0.352,3.725 0.086,2.118 0.348,1.935 0.502,1.68 0.542,1.365 L -0.413,0.954 0,0 z"
             id="path3029"
             style="fill:#ec7d23;fill-opacity:1;fill-rule:nonzero;stroke:none" /></g><g
           transform="translate(80.2017,382.6313)"
           id="g3031"><path
             d="m 0,0 c -4.118,-11.386 -4.537,-24.952 -4.318,-35.782 l -0.973,-0.178 -0.882,-0.447 c -0.875,1.236 -0.373,3.499 -0.559,5.702 -0.173,2.089 -0.456,2.281 -0.144,4.744 0.721,5.713 -1.291,13.593 0.466,20.65 0.585,2.347 0.696,5.311 1.446,7.79 0.344,1.169 1.435,2.275 2.188,3.753 0.793,1.58 2.066,4.746 3.942,3.975 C 3.608,9.209 0.352,3.725 0.086,2.118 0.348,1.935 0.502,1.68 0.542,1.365 L -0.413,0.954 0,0 z"
             id="path3033"
             style="fill:none;stroke:#ec7d23;stroke-width:0.146;stroke-linecap:butt;stroke-linejoin:miter;stroke-miterlimit:4;stroke-opacity:1;stroke-dasharray:none" /></g><g
           transform="translate(74.9111,346.6714)"
           id="g3035"><path
             d="M 0,0 C 0.513,-2.358 0.728,-4.815 1.044,-7.199"
             id="path3037"
             style="fill:#ec7d23;fill-opacity:1;fill-rule:nonzero;stroke:#ec7d23;stroke-width:0.146;stroke-linecap:butt;stroke-linejoin:miter;stroke-miterlimit:4;stroke-opacity:1;stroke-dasharray:none" /></g><g
           transform="translate(79.793,383.5854)"
           id="g3039"><path
             d="M 0,0 C 0.635,-0.291 1.413,-0.354 1.919,-0.88 2.873,-4.724 4.641,-7.976 6.915,-11.123"
             id="path3041"
             style="fill:#ec7d23;fill-opacity:1;fill-rule:nonzero;stroke:#ec7d23;stroke-width:0.146;stroke-linecap:butt;stroke-linejoin:miter;stroke-miterlimit:4;stroke-opacity:1;stroke-dasharray:none" /></g><g
           transform="translate(347.0991,124.8281)"
           id="g3043"><path
             d="m 0,0 c -12.703,-17.4 -19.053,-39.225 -19.053,-65.475 0,-11.903 1.27,-23.909 3.811,-36.016 2.134,-9.869 3.555,-14.804 4.268,-14.804 0,1.017 -1.525,5.64 -4.573,13.87 -4.777,12.399 -7.163,27.131 -7.163,44.202 0,12.397 1.166,24.488 3.505,36.277 2.032,10.261 3.963,16.358 5.792,18.29 -2.846,-0.815 -5.692,-1.626 -8.536,-2.439 -7.011,-2.339 -14.327,-5.182 -21.948,-8.535 -9.96,-4.371 -19.003,-8.943 -27.131,-13.719 5.08,-6.096 12.091,-12.193 21.034,-18.29 2.744,-1.829 5.435,-3.658 8.078,-5.487 -14.632,4.777 -24.692,11.329 -30.179,19.662 -0.407,0.508 -1.017,1.372 -1.829,2.592 -6.302,-3.559 -12.751,-7.369 -19.358,-11.432 4.37,3.453 10.567,7.824 18.595,13.109 l -0.152,0.152 c -5.894,10.77 -8.84,21.998 -8.84,33.685 0,14.835 4.977,29.06 14.937,42.677 10.872,14.938 19.815,25.352 26.826,31.247 5.995,5.183 11.432,7.671 16.31,7.469 C -15.04,79.718 -7.011,72.452 -1.524,65.238 -0.51,63.814 0,62.19 0,60.361 0,57.412 -1.424,52.992 -4.268,47.101 -7.826,39.884 -11.534,36.278 -15.395,36.278 c -1.931,0 -2.795,1.422 -2.591,4.268 0,0.203 -0.052,0.812 -0.152,1.829 -0.102,1.015 -0.153,1.829 -0.153,2.439 0,2.032 0.71,3.353 2.134,3.963 6.605,2.744 9.908,5.03 9.908,6.859 0,1.117 -0.762,2.539 -2.287,4.267 -2.338,2.947 -4.725,5.893 -7.163,8.841 -3.049,3.149 -6.25,4.725 -9.603,4.725 -6.302,0 -14.43,-5.487 -24.387,-16.461 -7.521,-8.231 -14.023,-18.546 -19.51,-30.942 -5.895,-13.313 -8.841,-25.049 -8.841,-35.21 0,-7.01 1.83,-12.905 5.488,-17.68 17.883,11.481 30.839,19.153 38.867,23.015 16.157,7.519 31.956,11.28 47.403,11.28 L 39.629,-1.827 C 33.023,1.222 25.809,2.746 17.986,2.746 11.584,2.746 5.689,1.881 0.305,0.152 L 0,0 z"
             id="path3045"
             style="fill:#000000;fill-opacity:1;fill-rule:nonzero;stroke:none" /></g><g
           transform="translate(398.7686,115.9902)"
           id="g3047"><path
             d="m 0,0 c 0,0.609 -0.205,1.116 -0.609,1.523 -0.915,0.611 -1.78,0.915 -2.592,0.915 -1.524,0 -3.558,-1.881 -6.097,-5.639 -3.253,-4.675 -5.132,-7.926 -5.639,-9.755 C -4.98,-7.469 0,-3.151 0,0 m -16.766,-23.778 c 0,-1.219 1.015,-2.591 3.048,-4.116 3.963,-0.914 8.433,-1.372 13.413,-1.372 6.604,0 12.956,0.915 19.053,2.745 -5.182,-2.745 -10.315,-5.438 -15.394,-8.079 -4.269,-2.034 -8.181,-3.048 -11.737,-3.048 -2.644,0 -5.639,0.457 -8.993,1.372 -3.963,1.116 -6.402,3.148 -7.316,6.096 -0.408,1.829 -0.815,3.708 -1.22,5.64 -3.558,-0.51 -6.504,-0.457 -8.84,0.152 l 12.651,11.432 c 3.758,6.909 7.24,11.836 10.441,14.785 3.201,2.945 6.783,4.42 10.745,4.42 4.776,0 7.165,-1.119 7.165,-3.353 0,-2.542 -1.677,-5.692 -5.031,-9.451 -3.963,-4.37 -9.552,-8.687 -16.766,-12.956 -0.814,-1.626 -1.219,-3.048 -1.219,-4.267"
             id="path3049"
             style="fill:#000000;fill-opacity:1;fill-rule:nonzero;stroke:none" /></g><g
           transform="translate(432.7583,109.4355)"
           id="g3051"><path
             d="m 0,0 c -0.51,-1.932 -1.067,-3.862 -1.677,-5.792 -0.712,-2.438 -1.066,-4.572 -1.066,-6.401 0,-3.559 1.243,-6.58 3.733,-9.07 2.489,-2.491 6.376,-3.734 11.661,-3.734 3.758,0 7.011,0.862 9.755,2.592 2.134,1.421 3.861,4.012 5.182,7.773 1.117,3.353 1.677,6.859 1.677,10.517 0,3.453 -0.56,5.944 -1.677,7.469 -1.424,1.624 -3.862,2.438 -7.317,2.438 0.916,0 -2.235,-0.357 -9.449,-1.066 C 9.397,4.623 7.29,3.937 4.496,2.668 1.7,1.396 0.202,0.508 0,0 m -7.164,9.755 1.829,1.829 c 0.405,-0.103 1.981,-2.286 4.726,-6.554 6.706,3.453 13.512,5.183 20.423,5.183 1.525,0 3.099,-0.103 4.726,-0.306 4.47,-0.304 7.469,-1.93 8.992,-4.877 0.813,-1.425 1.525,-4.573 2.134,-9.45 0.405,-3.863 -0.891,-8.561 -3.887,-14.099 -2.998,-5.54 -6.427,-9.171 -10.288,-10.898 -4.472,-2.031 -9.197,-3.049 -14.175,-3.049 -5.285,0 -9.526,1.349 -12.727,4.039 -3.201,2.692 -4.801,6.631 -4.801,11.814 0,3.352 0.709,6.959 2.134,10.821 -1.425,-0.712 -4.218,-2.389 -8.384,-5.029 l -0.609,1.066 c 0.712,1.319 4.115,5.233 10.212,11.736 0,0.611 -0.103,3.202 -0.305,7.774"
             id="path3053"
             style="fill:#000000;fill-opacity:1;fill-rule:nonzero;stroke:none" /></g><g
           transform="translate(507.5952,113.0938)"
           id="g3055"><path
             d="M 0,0 -1.981,-6.401 C 0.354,-1.627 3.403,1.27 7.163,2.286 L 0,0 z m -7.316,-1.677 c -8.537,-4.675 -12.956,-8.028 -13.261,-10.059 0.202,-0.408 0.71,-0.61 1.524,-0.61 2.032,0 5.282,1.117 9.755,3.353 l 1.982,7.316 z M -5.183,77.125 -15.7,75.601 c 10.567,7.621 20.372,11.432 29.418,11.432 1.219,0 2.233,-0.103 3.048,-0.305 1.929,-0.815 2.896,-3.963 2.896,-9.451 0,-13.617 -6.454,-37.445 -19.357,-71.485 9.347,1.319 16.206,3.506 20.576,6.555 5.08,4.267 9.551,8.535 13.413,12.802 9.246,10.263 14.633,19.866 16.157,28.808 13.208,13.208 21.744,19.865 25.607,19.968 0.202,-0.103 0.304,-0.306 0.304,-0.611 0,-3.047 -7.063,-13.464 -21.186,-31.246 C 41.051,24.285 31.193,13.666 25.606,10.212 46.74,0.253 63.712,-10.314 76.515,-21.491 44.1,-4.115 24.539,4.165 17.833,3.354 14.885,2.234 11.988,1.067 9.145,-0.152 5.385,-2.084 0.709,-6.047 -4.878,-12.041 l -9.602,-31.704 c -0.712,0.205 -1.475,1.17 -2.287,2.896 -0.102,2.339 2.134,10.922 6.706,25.759 -4.877,-2.236 -9.197,-3.353 -12.955,-3.353 -3.456,0 -6.097,0.915 -7.925,2.744 0,0.609 0.811,1.677 2.438,3.201 3.86,3.657 11.432,9.093 22.711,16.309 9.245,27.943 13.87,49.129 13.87,63.559 0,4.268 -0.357,7.317 -1.067,9.146 -1.219,2.031 -3.048,3.048 -5.488,3.048 -2.033,0 -4.267,-0.815 -6.706,-2.439"
             id="path3057"
             style="fill:#000000;fill-opacity:1;fill-rule:nonzero;stroke:none" /></g><g
           transform="translate(619.3188,126.5068)"
           id="g3059"><path
             d="m 0,0 c 3.353,1.929 5.842,2.996 7.468,3.201 0.812,-0.102 1.22,-0.712 1.22,-1.829 0,-2.134 -1.677,-6.886 -5.03,-14.252 -3.353,-7.368 -5.03,-11.66 -5.03,-12.879 0,-0.51 0.152,-0.814 0.457,-0.915 1.117,-0.205 5.613,2.311 13.489,7.545 7.874,5.233 12.575,7.645 14.099,7.24 0.508,-0.102 0.763,-0.814 0.763,-2.133 0,-3.559 -2.084,-11.839 -6.249,-24.845 -0.206,-0.51 -0.306,-1.018 -0.306,-1.525 0,-1.321 0.965,-1.981 2.896,-1.981 1.624,0 4.013,0.507 7.164,1.524 1.929,0.71 3.861,1.372 5.792,1.982 -0.712,-0.815 -1.372,-1.627 -1.981,-2.439 -3.151,-2.236 -6.606,-4.168 -10.365,-5.792 -4.778,-2.134 -8.638,-3.048 -11.584,-2.744 -0.204,0 -0.305,0.153 -0.305,0.457 0,0.915 1.319,5.004 3.963,12.271 2.642,7.263 3.963,12.064 3.963,14.403 0,1.524 -0.457,2.286 -1.371,2.286 -0.306,0 -0.611,-0.052 -0.915,-0.152 -0.305,-0.103 -6.706,-5.029 -19.205,-14.784 -11.584,-9.146 -18.496,-13.362 -20.73,-12.652 -0.305,0.101 -0.457,0.355 -0.457,0.762 0,1.22 2.897,6.326 8.689,15.318 5.792,8.994 8.687,14.962 8.687,17.911 0,1.524 -0.712,2.488 -2.134,2.895 -2.034,0.508 -7.088,-2.362 -15.166,-8.611 -8.078,-6.249 -12.219,-9.374 -12.422,-9.374 -0.61,0.099 -0.915,0.507 -0.915,1.219 0,0.507 0.153,1.167 0.457,1.982 C -19.715,-13.313 -8.028,-4.675 0,0"
             id="path3061"
             style="fill:#000000;fill-opacity:1;fill-rule:nonzero;stroke:none" /></g><g
           transform="translate(673.8833,109.4355)"
           id="g3063"><path
             d="m 0,0 c -0.51,-1.932 -1.067,-3.862 -1.677,-5.792 -0.712,-2.438 -1.066,-4.572 -1.066,-6.401 0,-3.559 1.243,-6.58 3.733,-9.07 2.489,-2.491 6.376,-3.734 11.661,-3.734 3.758,0 7.011,0.862 9.755,2.592 2.134,1.421 3.861,4.012 5.182,7.773 1.117,3.353 1.677,6.859 1.677,10.517 0,3.453 -0.56,5.944 -1.677,7.469 -1.424,1.624 -3.862,2.438 -7.317,2.438 0.916,0 -2.235,-0.357 -9.449,-1.066 C 9.397,4.623 7.29,3.937 4.496,2.668 1.7,1.396 0.202,0.508 0,0 m -7.164,9.755 1.829,1.829 c 0.405,-0.103 1.981,-2.286 4.726,-6.554 6.706,3.453 13.512,5.183 20.423,5.183 1.525,0 3.099,-0.103 4.726,-0.306 4.47,-0.304 7.469,-1.93 8.992,-4.877 0.813,-1.425 1.525,-4.573 2.134,-9.45 0.405,-3.863 -0.891,-8.561 -3.887,-14.099 -2.998,-5.54 -6.427,-9.171 -10.288,-10.898 -4.472,-2.031 -9.197,-3.049 -14.175,-3.049 -5.285,0 -9.526,1.349 -12.727,4.039 -3.201,2.692 -4.801,6.631 -4.801,11.814 0,3.352 0.709,6.959 2.134,10.821 -1.425,-0.712 -4.218,-2.389 -8.384,-5.029 l -0.609,1.066 c 0.712,1.319 4.115,5.233 10.212,11.736 0,0.611 -0.103,3.202 -0.305,7.774"
             id="path3065"
             style="fill:#000000;fill-opacity:1;fill-rule:nonzero;stroke:none" /></g><g
           transform="translate(792.6187,118.8857)"
           id="g3067"><path
             d="m 0,0 c 0,-1.932 -1.017,-4.877 -3.048,-8.841 -1.017,0 -6.454,-5.436 -16.309,-16.308 -9.858,-10.874 -15.497,-16.309 -16.919,-16.309 -1.017,0.102 -1.577,3.225 -1.677,9.373 -0.102,6.147 -0.662,9.374 -1.676,9.679 -1.322,0.405 -4.625,-2.21 -9.908,-7.85 -5.284,-5.64 -8.383,-8.409 -9.297,-8.307 -1.322,0 -1.981,0.661 -1.981,1.982 0,1.524 0.049,3.049 0.152,4.572 -0.205,6.197 -0.967,11.532 -2.287,16.005 -1.321,4.47 -2.846,6.654 -4.572,6.554 -2.644,-0.51 -6.759,-3.354 -12.346,-8.535 0.404,1.829 3.174,4.953 8.306,9.374 5.13,4.42 8.815,6.63 11.051,6.63 2.439,0 4.063,-2.389 4.877,-7.165 0.405,-2.438 0.66,-6.911 0.763,-13.413 0.1,-4.777 0.507,-7.163 1.219,-7.163 1.014,-0.102 4.497,3.201 10.441,9.908 5.944,6.706 9.321,10.006 10.136,9.907 0.405,-0.103 0.609,-0.762 0.609,-1.982 0,-1.016 -0.204,-3.405 -0.609,-7.164 -0.407,-3.76 -0.61,-6.504 -0.61,-8.23 0,-3.152 0.557,-4.726 1.677,-4.726 0.404,0 0.862,0.154 1.371,0.458 0.203,0.1 4.726,6.044 13.566,17.833 C -8.84,-2.743 -3.658,2.691 -1.524,2.591 -0.51,2.387 0,1.524 0,0"
             id="path3069"
             style="fill:#000000;fill-opacity:1;fill-rule:nonzero;stroke:none" /></g></g></g></g></svg>